Coordinates
version=1
nRows=16
nColumns=40
inDegrees=yes

Units are S.I. units (second, meters, Newtons, ...)
If the header above contains a line with 'inDegrees', this indicates whether rotational values are in degrees (yes) or radians (no).

endheader
time	pelvis_tilt	pelvis_list	pelvis_rotation	pelvis_tx	pelvis_ty	pelvis_tz	hip_flexion_r	hip_adduction_r	hip_rotation_r	knee_angle_r	knee_angle_r_beta	ankle_angle_r	subtalar_angle_r	mtp_angle_r	hip_flexion_l	hip_adduction_l	hip_rotation_l	knee_angle_l	knee_angle_l_beta	ankle_angle_l	subtalar_angle_l	mtp_angle_l	lumbar_extension	lumbar_bending	lumbar_rotation	arm_flex_r	arm_add_r	arm_rot_r	elbow_flex_r	pro_sup_r	wrist_flex_r	wrist_dev_r	arm_flex_l	arm_add_l	arm_rot_l	elbow_flex_l	pro_sup_l	wrist_flex_l	wrist_dev_l
      1.74000000	     -9.65448826	      0.77019391	      1.39334473	      1.19550397	      1.02533858	     -0.46068883	     11.30815989	     -2.02900589	     -1.47505678	     10.33085879	      0.18030750	      9.51505031	      0.00000000	      0.00000000	     30.40897001	     -1.00492662	     -2.07827653	     57.78443655	      1.00852867	      2.63186889	      0.00000000	      0.00000000	     -3.54137172	      0.41147972	      1.84542676	     -4.54444646	    -14.11336711	      2.30327927	     60.65137395	     65.61174953	      0.00000000	      0.00000000	    -12.19485196	     -8.38828070	     -1.78410661	     41.06932142	     73.28597963	      0.00000000	      0.00000000
      1.75000000	     -9.68252198	      0.90370312	      1.36008611	      1.19430610	      1.02560380	     -0.46016889	     10.22030753	     -2.08434721	     -1.29614328	      9.52865473	      0.16630640	      9.56179289	      0.00000000	      0.00000000	     31.42737731	     -0.99344363	     -2.56908031	     55.79041654	      0.97372646	      3.18426994	      0.00000000	      0.00000000	     -3.70814174	      0.12634464	      2.06215712	     -4.01041375	    -14.21363193	      2.47259895	     61.72440306	     65.47130873	      0.00000000	      0.00000000	    -12.73772395	     -8.38808960	     -2.57403334	     41.31740352	     73.45872115	      0.00000000	      0.00000000
      1.76000000	     -9.94702353	      1.06391889	      1.32766636	      1.19309005	      1.02529377	     -0.45973988	      9.50705195	     -2.19581958	     -1.14008237	      8.99317608	      0.15696053	      9.73459654	      0.00000000	      0.00000000	     32.59970761	     -0.91413195	     -2.97785267	     53.55381782	      0.93469045	      3.77949579	      0.00000000	      0.00000000	     -3.57452524	     -0.18696827	      2.33739134	     -3.60946276	    -14.36168145	      2.69730324	     62.86269342	     65.47462042	      0.00000000	      0.00000000	    -13.20543512	     -8.49144829	     -2.95588743	     41.36557314	     73.45541142	      0.00000000	      0.00000000
      1.77000000	    -10.13144213	      1.25405986	      1.20606439	      1.19203592	      1.02490021	     -0.45918990	      8.67851312	     -2.32451988	     -0.90691595	      8.39494099	      0.14651936	      9.92793277	      0.00000000	      0.00000000	     33.55044591	     -0.86746204	     -3.49374312	     51.04952717	      0.89098233	      4.29893339	      0.00000000	      0.00000000	     -3.54591224	     -0.54190870	      2.69683604	     -3.23460651	    -14.49695396	      2.91993465	     64.04313943	     65.51253364	      0.00000000	      0.00000000	    -13.65643153	     -8.57821586	     -3.43615546	     41.49809715	     73.42856898	      0.00000000	      0.00000000
      1.78000000	    -10.22789262	      1.45920134	      1.09125512	      1.19119904	      1.02442114	     -0.45870702	      7.72844674	     -2.47445245	     -0.70714038	      7.77308939	      0.13566600	     10.15567320	      0.00000000	      0.00000000	     34.26628143	     -0.80638800	     -4.03986123	     48.28003188	      0.84264552	      4.77395302	      0.00000000	      0.00000000	     -3.61010325	     -0.90396424	      3.01696270	     -2.89003044	    -14.62847044	      3.17110815	     65.26102210	     65.59267811	      0.00000000	      0.00000000	    -14.11192937	     -8.67593314	     -3.95130114	     41.66292223	     73.36639355	      0.00000000	      0.00000000
      1.79000000	    -10.25145109	      1.63217328	      1.04114164	      1.19059580	      1.02390615	     -0.45843138	      6.66495036	     -2.59720389	     -0.60572578	      7.10874957	      0.12407109	     10.35974418	      0.00000000	      0.00000000	     34.76395998	     -0.70896317	     -4.48585724	     45.22450580	      0.78931653	      5.17898476	      0.00000000	      0.00000000	     -3.74759402	     -1.24495369	      3.26741050	     -2.57819648	    -14.80177219	      3.48315719	     66.45912072	     65.75525051	      0.00000000	      0.00000000	    -14.53068955	     -8.75735384	     -4.43629908	     41.79749271	     73.29446998	      0.00000000	      0.00000000
      1.80000000	    -10.27155845	      1.74145707	      1.01947944	      1.19007176	      1.02322238	     -0.45835276	      5.59609787	     -2.65931219	     -0.53021465	      6.44788971	      0.11253691	     10.50185010	      0.00000000	      0.00000000	     35.13806912	     -0.61683981	     -4.81496731	     41.93027564	      0.73182137	      5.43978343	      0.00000000	      0.00000000	     -3.86550030	     -1.49656847	      3.49455589	     -2.27294174	    -15.03689402	      3.88866245	     67.61186842	     66.01371871	      0.00000000	      0.00000000	    -14.87908365	     -8.82888553	     -4.82486348	     41.85414609	     73.24246883	      0.00000000	      0.00000000
      1.81000000	    -10.08829694	      1.87607046	      0.93810195	      1.18969289	      1.02270259	     -0.45823415	      4.24140263	     -2.74051726	     -0.39680981	      5.66084682	      0.09880042	     10.56188890	      0.00000000	      0.00000000	     35.13213205	     -0.53868940	     -5.32136522	     38.35089875	      0.66934945	      5.41671209	      0.00000000	      0.00000000	     -4.21191218	     -1.75862135	      3.67154999	     -1.84818275	    -15.20828970	      4.33562084	     68.59523695	     66.65571808	      0.00000000	      0.00000000	    -15.21744787	     -8.90788992	     -5.21373306	     41.88926625	     73.28580834	      0.00000000	      0.00000000
      1.82000000	    -10.38042445	      1.81810611	      0.77674409	      1.18885936	      1.02119082	     -0.45804236	      3.60648323	     -2.64211626	     -0.11709876	      5.25975097	      0.09179997	     10.74139299	      0.00000000	      0.00000000	     35.65874054	     -0.63645070	     -5.61945368	     34.78192726	      0.60705915	      5.25966841	      0.00000000	      0.00000000	     -4.02574556	     -1.80716390	      4.04046499	     -1.61788819	    -15.52782008	      4.94653426	     69.80166585	     66.97388359	      0.00000000	      0.00000000	    -15.50624902	     -8.98359544	     -5.42680431	     41.89073629	     73.28150636	      0.00000000	      0.00000000
      1.83000000	    -10.30690755	      2.09145580	      0.56516666	      1.18835922	      1.02016883	     -0.45775248	      2.48456285	     -2.90118459	      0.10968984	      4.70473416	      0.08211310	     10.98695239	      0.00000000	      0.00000000	     35.51744498	     -0.45044480	     -6.36965456	     30.78725939	      0.53733904	      4.82533655	      0.00000000	      0.00000000	     -4.25402969	     -2.23285117	      4.31893169	     -1.24396279	    -15.62455127	      5.45635673	     70.69708647	     67.62216371	      0.00000000	      0.00000000	    -15.72763074	     -9.13534453	     -5.69517352	     41.78640028	     73.36751715	      0.00000000	      0.00000000
      1.84000000	    -10.38249869	      2.20401784	      0.36529909	      1.18783420	      1.01870734	     -0.45772814	      1.59050183	     -3.01724692	      0.39325187	      4.28297564	      0.07475203	     11.21527511	      0.00000000	      0.00000000	     35.50358648	     -0.33224250	     -6.89841712	     26.79671652	      0.46769093	      4.63303714	      0.00000000	      0.00000000	     -4.30522305	     -2.44923401	      4.61404201	     -0.94906607	    -15.81589248	      6.06422771	     71.65579339	     68.33351388	      0.00000000	      0.00000000	    -15.92810270	     -9.23534709	     -5.89511034	     41.70028558	     73.49119481	      0.00000000	      0.00000000
      1.85000000	    -10.54574321	      2.30966277	      0.16037389	      1.18752070	      1.01693435	     -0.45794190	      0.82058713	     -3.13850670	      0.65451652	      3.92704695	      0.06853990	     11.50174091	      0.00000000	      0.00000000	     35.49291824	     -0.16040587	     -7.35483857	     22.76612329	      0.39734381	      4.58567566	      0.00000000	      0.00000000	     -4.22535569	     -2.64024259	      4.94066402	     -0.73596160	    -16.02760347	      6.71634527	     72.54499041	     68.85148212	      0.00000000	      0.00000000	    -16.08805455	     -9.31561299	     -6.02163482	     41.48254055	     73.61117795	      0.00000000	      0.00000000
      1.86000000	    -10.64230356	      2.42480677	     -0.09030677	      1.18745349	      1.01512501	     -0.45834430	      0.00542337	     -3.29145613	      0.89142528	      3.63232354	      0.06339601	     11.78151941	      0.00000000	      0.00000000	     35.24495067	      0.06083417	     -7.70268326	     18.59225077	      0.32449599	      4.69733671	      0.00000000	      0.00000000	     -4.18537128	     -2.82246054	      5.30342404	     -0.53056559	    -16.23956908	      7.37159007	     73.29110658	     69.34932907	      0.00000000	      0.00000000	    -16.20236169	     -9.37547794	     -6.06578191	     41.19906649	     73.80690672	      0.00000000	      0.00000000
      1.87000000	    -10.66593152	      2.52399750	     -0.34684552	      1.18750587	      1.01322199	     -0.45886433	     -0.84588468	     -3.45382259	      1.12844482	      3.44798365	      0.06017867	     12.07902041	      0.00000000	      0.00000000	     34.77068205	      0.30875216	     -7.77033130	     14.32995442	      0.25010489	      4.71410023	      0.00000000	      0.00000000	     -4.21703423	     -2.97182251	      5.63550513	     -0.30956949	    -16.43680686	      8.00086697	     73.95091300	     69.87556429	      0.00000000	      0.00000000	    -16.30774538	     -9.41127817	     -6.09811152	     40.90667383	     74.10083939	      0.00000000	      0.00000000
      1.88000000	    -10.65556656	      2.55163971	     -0.58476098	      1.18754360	      1.01116072	     -0.45933954	     -1.67084864	     -3.53471541	      1.27642238	      3.39647193	      0.05927962	     12.44035498	      0.00000000	      0.00000000	     34.16302373	      0.49976825	     -7.45242351	     10.13017532	      0.17680491	      4.47553340	      0.00000000	      0.00000000	     -4.30280554	     -3.05117285	      5.91892819	     -0.05670911	    -16.58006153	      8.62897769	     74.48872340	     70.27982541	      0.00000000	      0.00000000	    -16.38169337	     -9.45637220	     -6.21621745	     40.66487483	     74.32339834	      0.00000000	      0.00000000
      1.89000000	    -10.58406060	      2.43860175	     -0.79156952	      1.18761030	      1.00892716	     -0.45987671	     -2.49773294	     -3.46832693	      1.48462706	      3.49718709	      0.06103743	     12.84527666	      0.00000000	      0.00000000	     33.51338689	      0.53214235	     -6.88232374	      6.31425481	      0.11020454	      4.12065124	      0.00000000	      0.00000000	     -4.45905435	     -2.97535959	      6.11994836	      0.23090574	    -16.72734859	      9.28055736	     75.00177618	     70.54381541	      0.00000000	      0.00000000	    -16.45422708	     -9.48987489	     -6.37117728	     40.48198222	     74.42062930	      0.00000000	      0.00000000
